<?xml version="1.0" standalone="no"?>
<!DOCTYPE svg PUBLIC "-//W3C//DTD SVG 20010904//EN"
 "http://www.w3.org/TR/2001/REC-SVG-20010904/DTD/svg10.dtd">
<svg version="1.0" xmlns="http://www.w3.org/2000/svg"
 width="16.000000pt" height="16.000000pt" viewBox="0 0 16.000000 16.000000"
 preserveAspectRatio="xMidYMid meet">
<metadata>
Created by potrace 1.11, written by Peter Selinger 2001-2013
</metadata>
<g transform="translate(0.000000,16.000000) scale(0.006202,-0.006202)"
fill="#000000" stroke="none">
<path d="M1902 2473 c-24 -20 -47 -101 -57 -203 -18 -181 -24 -233 -42 -330
-43 -243 -144 -443 -290 -580 -67 -64 -189 -150 -210 -150 -7 0 -13 -4 -13
-10 0 -11 -33 -14 -44 -3 -3 4 -13 8 -22 9 -11 2 -12 -1 -5 -10 6 -7 7 -17 3
-22 -4 -4 1 -2 11 5 9 7 17 9 17 3 0 -10 -78 -47 -92 -44 -5 1 -8 -2 -8 -7 0
-5 -7 -12 -16 -15 -8 -3 -13 -2 -9 3 3 5 0 11 -7 13 -8 3 -4 12 9 25 18 18 19
22 7 27 -9 3 -13 10 -10 14 3 5 -1 9 -9 9 -14 0 -19 -10 -16 -29 0 -5 -4 -8
-10 -8 -5 0 -7 -5 -3 -11 4 -8 9 -7 15 2 4 7 5 17 3 21 -3 4 -1 8 4 8 18 0 21
-13 8 -32 -8 -11 -12 -27 -9 -37 5 -21 -37 -43 -57 -31 -8 5 -18 6 -24 3 -5
-4 -7 1 -3 10 3 10 2 17 -3 17 -6 0 -10 -7 -10 -15 0 -17 -16 -20 -25 -5 -3 6
-16 10 -28 10 -18 -1 -15 -4 12 -15 18 -8 37 -12 42 -9 5 3 9 0 9 -6 0 -9 -30
-26 -85 -46 -31 -11 -39 -11 -54 4 -7 7 -16 10 -19 7 -4 -3 0 -10 8 -16 13 -8
13 -10 0 -19 -8 -5 -19 -8 -25 -7 -5 2 -16 -3 -24 -10 -8 -9 -23 -12 -38 -8
-16 4 -22 2 -18 -5 3 -5 0 -10 -7 -10 -7 0 -26 -7 -42 -15 -16 -9 -31 -13 -34
-10 -3 2 3 7 12 11 9 3 16 12 16 20 0 8 5 14 11 14 5 0 7 -4 4 -10 -3 -6 1 -7
10 -4 14 6 14 8 -2 19 -14 11 -20 7 -41 -24 -30 -45 -31 -46 -37 -39 -4 3 5
23 20 43 14 21 25 43 25 49 0 6 -5 4 -10 -4 -8 -12 -10 -12 -10 -1 0 8 7 19
16 25 16 12 9 51 -7 40 -5 -3 -9 2 -9 11 0 9 4 14 9 11 5 -4 4 8 -2 25 -8 21
-13 26 -15 15 -2 -11 -10 -15 -21 -11 -11 3 -25 -3 -36 -15 -18 -20 -18 -21 2
-42 21 -20 43 -18 43 5 0 7 -4 6 -10 -3 -5 -8 -12 -11 -16 -7 -5 4 3 19 17 32
l24 25 0 -70 c0 -64 -1 -68 -17 -53 -9 8 -23 13 -30 10 -8 -4 -7 -6 5 -6 20
-1 22 -12 5 -29 -17 -17 -33 -15 -18 3 9 10 9 15 1 15 -11 0 -15 -13 -12 -36
2 -16 -35 -24 -48 -11 -16 16 -14 25 9 49 14 16 17 24 8 29 -11 7 -60 -22 -52
-30 2 -2 13 4 24 14 11 10 20 13 20 7 0 -6 -9 -17 -20 -25 -19 -13 -19 -14 3
-45 19 -28 48 -47 32 -22 -3 6 -1 10 6 10 7 0 25 12 41 27 15 14 31 24 35 20
3 -4 -7 -19 -23 -33 -16 -15 -23 -23 -16 -20 6 4 12 2 12 -4 0 -7 -8 -9 -21
-5 -13 5 -19 3 -15 -3 3 -5 -3 -12 -14 -15 -15 -4 -26 5 -47 39 -28 43 -53 62
-33 25 11 -22 4 -30 -35 -37 -30 -5 -31 0 -5 28 11 12 18 24 15 26 -4 5 -44
-38 -44 -48 0 -3 9 -16 20 -29 18 -21 23 -23 40 -13 20 13 39 9 39 -8 0 -5 -7
-6 -17 -3 -12 5 -14 3 -8 -8 4 -8 5 -11 0 -7 -4 4 -41 -11 -81 -33 -41 -23
-74 -38 -74 -34 0 4 -12 -7 -26 -24 -14 -17 -31 -31 -37 -31 -15 0 -36 -46
-44 -94 -3 -22 -10 -33 -17 -30 -6 3 -4 -1 6 -8 9 -8 18 -23 20 -33 4 -27 29
-57 123 -150 167 -166 384 -279 635 -331 131 -27 364 -25 499 5 261 57 471
171 651 352 286 288 421 659 386 1064 -24 283 -165 581 -375 792 -144 146
-232 195 -279 156z m-1252 -1352 c0 -12 -29 -35 -36 -28 -7 6 17 36 29 37 4 0
7 -4 7 -9z m50 -61 c0 -5 -4 -10 -10 -10 -5 0 -10 5 -10 10 0 6 5 10 10 10 6
0 10 -4 10 -10z m-140 -164 c-1 -6 -9 -1 -18 10 -16 19 -21 20 -37 8 -18 -14
-35 -10 -35 7 0 6 4 8 9 5 4 -3 17 1 27 9 17 13 21 12 37 -6 9 -12 17 -26 17
-33z"/>
<path d="M130 1349 c0 -5 5 -7 10 -4 6 3 10 8 10 11 0 2 -4 4 -10 4 -5 0 -10
-5 -10 -11z"/>
<path d="M178 1353 c20 -8 13 -25 -8 -18 -12 4 -20 2 -20 -5 0 -6 5 -8 10 -5
6 3 10 2 10 -2 0 -12 -41 -35 -48 -27 -4 4 -1 9 6 11 6 3 12 9 12 15 0 6 -6 6
-15 -2 -10 -8 -13 -25 -11 -52 4 -38 4 -39 -15 -22 -18 16 -20 16 -39 -1 -19
-17 -20 -17 -28 5 -7 19 -10 20 -15 7 -3 -9 0 -18 9 -21 9 -3 12 -11 9 -16 -4
-6 -1 -17 5 -25 9 -11 8 -19 -3 -35 -7 -11 -17 -17 -21 -12 -4 4 -6 0 -4 -8 2
-8 11 -21 22 -30 16 -14 17 -17 2 -29 -9 -7 -16 -17 -16 -22 0 -4 11 3 25 16
28 29 43 31 51 10 4 -8 10 -12 16 -9 13 9 -30 37 -47 30 -7 -2 -19 1 -25 9 -9
10 -7 20 5 39 12 18 14 30 6 44 -8 14 -5 22 10 35 24 21 33 22 26 3 -4 -11 -1
-13 10 -9 11 4 14 2 9 -5 -4 -7 -3 -12 2 -12 5 0 14 11 20 25 14 31 15 46 2
25 -9 -13 -10 -13 -10 0 0 8 10 21 22 29 19 12 23 11 33 -3 7 -8 15 -13 18 -9
4 3 7 -1 7 -11 0 -11 -4 -14 -12 -9 -7 4 -5 -5 5 -20 17 -26 17 -27 -7 -42
-19 -13 -29 -14 -45 -6 -25 14 -41 14 -21 1 13 -8 12 -10 -2 -10 -10 0 -18 4
-18 10 0 5 -9 14 -20 20 -16 9 -18 8 -14 -5 3 -8 10 -12 15 -9 15 9 9 -10 -11
-36 -23 -29 -25 -40 -8 -40 6 0 8 3 5 6 -13 14 23 47 53 49 29 3 30 2 15 -15
-8 -9 -13 -24 -9 -34 3 -9 2 -16 -4 -16 -6 0 -13 6 -15 13 -4 9 -6 9 -6 0 -2
-21 20 -26 38 -9 10 9 21 13 24 9 10 -10 8 -25 -2 -19 -5 3 -14 -1 -21 -9 -9
-10 -9 -15 -1 -15 6 0 11 4 11 9 0 5 8 8 18 6 9 -2 23 -4 30 -4 7 -1 11 -10 9
-23 -2 -13 -2 -17 0 -10 5 14 19 16 28 2 4 -6 16 -3 31 7 19 12 24 22 20 39
-5 19 -3 22 11 18 15 -5 15 -4 3 5 -8 5 -11 13 -7 17 4 5 19 -4 33 -20 25 -26
26 -52 2 -28 -7 7 -17 12 -22 12 -6 0 -3 -5 7 -11 9 -5 17 -15 17 -21 0 -9 -3
-9 -11 -1 -7 7 -17 4 -35 -14 -25 -24 -32 -39 -14 -28 6 3 10 2 10 -4 0 -17
61 -101 73 -101 7 1 23 8 37 16 17 10 18 13 5 9 -50 -18 -54 -17 -69 14 -19
36 -19 38 -3 44 6 2 2 3 -9 1 -25 -4 -39 27 -21 45 17 17 31 13 17 -4 -7 -9
-10 -18 -6 -22 3 -3 6 0 6 7 0 10 3 11 11 3 7 -7 18 -3 35 14 14 14 23 27 21
29 -2 2 -12 -5 -22 -16 -10 -11 -23 -20 -28 -20 -6 0 0 11 13 25 l24 25 -27
28 c-29 30 -37 53 -12 32 8 -7 15 -8 15 -3 0 5 -14 17 -31 27 -18 11 -29 14
-25 7 4 -6 1 -11 -9 -11 -9 0 -14 4 -11 9 11 16 -28 23 -40 7 -6 -9 -17 -16
-23 -16 -8 0 -7 5 3 16 9 8 13 21 9 27 -4 6 0 8 10 4 11 -4 14 -2 10 9 -3 9 1
14 13 15 12 0 14 3 6 6 -7 3 -21 -2 -31 -11 -16 -15 -17 -13 -17 24 1 22 4 40
9 40 4 0 7 5 7 11 0 8 -5 8 -15 -1 -8 -7 -12 -16 -9 -21 6 -10 -9 -12 -19 -2
-4 3 0 14 9 24 17 18 12 40 -9 38 -9 0 -9 -2 1 -6z m72 -163 c0 -5 -4 -10 -10
-10 -5 0 -10 5 -10 10 0 6 5 10 10 10 6 0 10 -4 10 -10z m41 -36 c-9 -12 -19
-20 -24 -17 -4 2 -2 -7 5 -22 10 -22 9 -27 -8 -39 -17 -13 -21 -12 -40 5 -11
10 -26 19 -33 19 -7 0 -9 5 -6 10 3 6 2 10 -4 10 -16 0 -35 41 -23 49 6 3 41
6 80 6 69 0 69 0 53 -21z m-141 -14 c0 -5 -4 -10 -10 -10 -5 0 -10 5 -10 10 0
6 5 10 10 10 6 0 10 -4 10 -10z"/>
<path d="M170 1161 c0 -6 5 -11 11 -11 5 0 7 -4 4 -10 -3 -5 -1 -10 4 -10 16
0 13 16 -4 30 -10 9 -15 9 -15 1z"/>
<path d="M213 1146 c0 -7 9 -18 19 -25 11 -7 18 -7 18 -1 0 5 -4 10 -10 10 -5
0 -10 7 -10 15 0 8 -4 15 -8 15 -5 0 -9 -6 -9 -14z"/>
<path d="M245 1150 c-3 -6 1 -7 9 -4 18 7 21 14 7 14 -6 0 -13 -4 -16 -10z"/>
<path d="M221 1101 c23 -19 49 -18 49 1 0 7 -5 6 -14 -1 -10 -9 -16 -8 -26 4
-7 8 -17 15 -22 15 -6 0 0 -8 13 -19z"/>
<path d="M234 1329 c0 -17 4 -25 12 -22 15 6 27 -13 29 -48 2 -16 -2 -26 -9
-25 -6 2 -8 1 -3 -1 4 -3 5 -9 1 -14 -3 -5 0 -9 5 -9 6 0 11 5 11 11 0 6 7 3
16 -6 9 -9 27 -23 40 -31 12 -9 20 -22 18 -29 -3 -8 1 -24 10 -37 9 -12 16
-18 16 -12 0 5 -5 15 -11 21 -9 9 -8 18 5 38 10 15 20 24 24 21 3 -4 0 -12 -6
-18 -17 -17 -15 -41 2 -35 7 3 23 -1 34 -9 17 -12 21 -12 25 1 4 8 1 12 -6 9
-7 -2 -13 4 -14 16 -2 22 12 27 20 8 4 -10 6 -10 6 -1 2 23 -21 25 -45 2 -30
-28 -32 -11 -2 21 18 19 19 22 5 17 -13 -5 -17 -2 -15 11 2 11 -4 17 -15 17
-10 0 -24 8 -31 17 -7 10 -16 15 -19 12 -3 -4 4 -15 16 -25 12 -10 17 -18 11
-19 -5 0 -20 9 -32 20 -12 12 -22 16 -22 11 0 -5 13 -19 28 -30 26 -18 29 -18
39 -3 6 9 14 14 17 11 4 -3 -2 -16 -11 -28 l-18 -22 -40 34 c-34 30 -38 36
-26 51 7 8 17 13 22 10 5 -3 9 0 9 5 0 16 -16 13 -34 -5 -11 -10 -16 -11 -16
-3 0 6 8 18 18 25 16 13 16 15 0 25 -10 5 -18 16 -18 24 0 11 6 9 25 -7 13
-11 22 -25 19 -29 -3 -5 2 -6 10 -3 22 9 -40 58 -74 59 -22 1 -26 -4 -26 -26z
m54 -21 c9 -11 10 -18 4 -18 -6 0 -17 9 -25 20 -8 11 -17 17 -20 13 -4 -3 -7
-1 -7 5 0 14 24 22 29 8 2 -6 10 -19 19 -28z"/>
<path d="M345 1328 c26 -23 28 -27 13 -33 -10 -4 -18 -12 -18 -18 0 -5 8 -3
18 6 26 23 39 21 18 -2 -18 -20 -14 -41 7 -41 7 0 6 4 -3 10 -8 5 -11 12 -7
16 3 4 13 2 21 -5 8 -6 19 -10 24 -9 6 2 18 -6 27 -17 16 -19 16 -19 1 7 -14
24 -14 27 0 39 14 11 18 10 31 -6 13 -19 14 -18 9 8 -3 19 -1 27 7 24 7 -2 11
-13 10 -23 -1 -10 0 -13 3 -6 9 20 24 14 21 -9 -1 -12 5 -24 13 -26 13 -4 13
-3 0 6 -8 5 -11 13 -7 17 3 4 13 1 22 -6 12 -10 20 -8 46 14 36 31 29 35 -9 5
l-27 -21 -22 27 c-13 14 -23 23 -23 19 0 -3 -7 -1 -15 6 -8 6 -19 9 -25 5 -5
-3 -10 -1 -10 4 0 6 -5 11 -11 11 -8 0 -7 -6 2 -17 12 -15 12 -16 -4 -10 -10
4 -16 3 -12 -2 7 -12 -35 -42 -47 -35 -14 9 -9 24 6 18 19 -7 32 16 15 27 -8
5 -21 6 -31 3 -10 -3 -23 4 -32 18 -9 12 -16 19 -16 14 0 -5 -6 -5 -13 0 -7 5
1 -3 18 -18z m70 -28 c3 -5 2 -10 -4 -10 -5 0 -13 5 -16 10 -3 6 -2 10 4 10 5
0 13 -4 16 -10z"/>
<path d="M110 1341 c0 -8 -7 -10 -20 -6 -12 4 -20 2 -20 -5 0 -6 5 -8 10 -5 6
3 10 2 10 -4 0 -5 -6 -12 -12 -14 -8 -3 -8 -6 -2 -6 15 -1 49 37 41 46 -4 3
-7 1 -7 -6z"/>
<path d="M370 1340 c0 -5 5 -10 11 -10 5 0 7 5 4 10 -3 6 -8 10 -11 10 -2 0
-4 -4 -4 -10z"/>
<path d="M410 1336 c0 -2 7 -7 16 -10 8 -3 12 -2 9 4 -6 10 -25 14 -25 6z"/>
<path d="M37 1300 c-9 -11 -13 -20 -8 -20 5 0 11 -6 14 -12 2 -7 3 -6 2 3 -1
9 2 24 7 33 12 22 6 20 -15 -4z"/>
<path d="M549 1298 c11 -15 41 -15 41 -1 0 3 -6 3 -14 0 -7 -3 -20 0 -27 6
-11 10 -11 9 0 -5z"/>
<path d="M60 1282 c0 -4 9 -8 20 -8 11 0 20 4 20 8 0 4 -9 8 -20 8 -11 0 -20
-4 -20 -8z"/>
<path d="M220 1282 c0 -4 9 -8 20 -8 11 0 20 4 20 8 0 4 -9 8 -20 8 -11 0 -20
-4 -20 -8z"/>
<path d="M640 1280 c-8 -5 -11 -12 -7 -17 5 -4 12 -1 17 7 9 14 11 12 14 -20
1 -18 28 -20 32 -2 1 7 0 8 -3 2 -7 -16 -26 -12 -20 4 8 20 -15 37 -33 26z"/>
<path d="M150 1270 c0 -5 5 -10 10 -10 6 0 10 5 10 10 0 6 -4 10 -10 10 -5 0
-10 -4 -10 -10z"/>
<path d="M465 1247 c8 -13 12 -27 8 -31 -5 -4 1 -14 11 -22 11 -7 16 -17 12
-21 -4 -5 -16 2 -26 14 -9 12 -20 19 -24 16 -3 -3 3 -12 14 -20 11 -8 17 -20
14 -31 -5 -14 -4 -15 5 -2 6 8 11 11 11 5 0 -5 6 -1 12 9 8 15 7 22 -6 31 -26
20 -18 29 9 11 14 -9 25 -13 25 -8 0 5 -11 15 -25 22 -13 7 -27 21 -31 32 -3
10 -10 18 -15 18 -5 0 -3 -10 6 -23z"/>
<path d="M610 1258 c0 -10 -3 -17 -7 -17 -27 4 -32 -2 -21 -26 l11 -24 28 20
c16 11 29 16 29 10 0 -6 5 -11 10 -11 6 0 6 7 -2 19 -11 18 -12 18 -32 0 -24
-23 -36 -24 -36 -3 0 8 4 13 8 10 15 -9 31 9 22 24 -8 13 -10 12 -10 -2z"/>
<path d="M740 1255 c9 -11 8 -19 -3 -35 -7 -11 -17 -17 -20 -14 -4 4 -9 -1
-13 -10 -3 -9 -13 -16 -22 -16 -10 0 -4 10 17 31 18 17 30 33 27 36 -3 3 -17
-9 -32 -26 -17 -20 -32 -30 -42 -26 -8 3 -25 -1 -37 -9 -21 -14 -24 -13 -43 9
-11 13 -18 26 -15 29 4 3 1 6 -6 6 -8 0 -11 -6 -7 -16 4 -9 -4 -28 -19 -45
-28 -35 -25 -65 6 -46 10 6 19 17 19 24 0 7 5 13 11 13 6 0 9 -7 5 -15 -3 -8
-1 -15 4 -15 14 0 12 27 -2 36 -7 4 -18 -2 -26 -14 -8 -12 -19 -22 -24 -22 -5
0 0 14 12 30 26 37 35 37 56 4 13 -19 14 -28 5 -37 -6 -6 -11 -16 -11 -21 0
-6 7 0 16 12 9 13 13 29 10 37 -5 15 31 42 41 31 3 -3 -2 -8 -11 -12 -9 -3
-16 -11 -16 -16 0 -6 6 -6 14 1 8 7 16 8 18 4 3 -4 3 -2 2 5 -3 8 4 10 21 6
18 -4 27 -1 31 10 3 9 10 14 15 11 4 -3 13 4 19 16 7 11 14 18 17 15 9 -9 -25
-54 -47 -61 -17 -5 -18 -10 -8 -28 6 -12 16 -25 22 -29 8 -5 7 -8 -1 -8 -7 0
-13 -5 -13 -11 0 -5 4 -8 9 -5 5 4 11 3 14 -1 2 -5 3 -3 1 3 -2 8 10 11 36 8
25 -2 42 2 50 11 8 9 8 15 2 15 -6 0 -12 -6 -15 -12 -2 -7 -7 -10 -11 -6 -4 3
-1 16 6 28 12 19 10 24 -11 41 -14 11 -25 32 -26 50 -3 29 -2 29 16 13 20 -18
26 -40 9 -29 -18 11 -11 -4 14 -28 14 -14 27 -22 30 -19 3 3 -3 11 -14 19 -10
7 -17 19 -14 27 6 15 -36 58 -60 62 -14 2 -15 -1 -6 -11z m60 -109 c0 -6 -7
-20 -16 -31 -14 -18 -17 -19 -42 -5 -15 9 -29 25 -31 35 -2 11 0 17 5 13 4 -5
13 1 21 12 13 19 16 19 38 4 14 -9 25 -21 25 -28z"/>
<path d="M742 1149 c-7 -10 -8 -19 -3 -19 5 0 11 6 14 13 2 6 8 9 12 5 4 -4 2
-14 -5 -23 -7 -8 -8 -15 -4 -15 5 0 14 8 21 18 9 15 8 21 -6 29 -14 9 -20 7
-29 -8z"/>
<path d="M497 1253 c-3 -5 4 -15 16 -23 21 -12 21 -12 7 6 -8 10 -15 20 -16
22 -1 2 -4 -1 -7 -5z"/>
<path d="M143 1231 c-10 -15 -9 -20 2 -25 8 -3 22 -3 30 0 11 5 12 10 2 25 -6
10 -14 19 -17 19 -3 0 -11 -9 -17 -19z m27 -11 c0 -5 -4 -10 -10 -10 -5 0 -10
5 -10 10 0 6 5 10 10 10 6 0 10 -4 10 -10z"/>
<path d="M812 1232 c9 -11 13 -11 19 0 5 7 9 11 10 8 0 -3 2 -15 5 -27 4 -24
-11 -32 -19 -10 -4 9 -6 9 -6 0 -2 -22 19 -24 44 -5 23 19 52 21 86 7 11 -4
19 0 23 11 5 14 4 15 -9 4 -12 -10 -15 -10 -15 0 0 8 -3 10 -7 7 -3 -4 -13 -1
-21 6 -13 9 -14 9 -8 0 4 -7 3 -13 -3 -13 -5 0 -13 5 -16 10 -3 6 -12 10 -18
10 -8 0 -8 -3 1 -9 11 -7 10 -10 -3 -15 -21 -8 -25 -8 -24 2 4 22 -3 30 -25
28 -19 -1 -22 -4 -14 -14z"/>
<path d="M416 1225 c4 -8 10 -15 15 -15 4 0 6 7 3 15 -4 8 -10 15 -15 15 -4 0
-6 -7 -3 -15z"/>
<path d="M5 1220 c3 -5 8 -10 11 -10 2 0 4 5 4 10 0 6 -5 10 -11 10 -5 0 -7
-4 -4 -10z"/>
<path d="M1031 1217 c2 -1 14 -11 27 -21 12 -11 22 -16 22 -13 0 10 -31 37
-42 37 -6 0 -9 -1 -7 -3z"/>
<path d="M980 1200 c0 -5 5 -10 11 -10 5 0 7 5 4 10 -3 6 -8 10 -11 10 -2 0
-4 -4 -4 -10z"/>
<path d="M1140 1202 c0 -17 28 -22 40 -6 9 10 9 14 1 14 -6 0 -11 -5 -11 -11
0 -8 -5 -8 -15 1 -9 7 -15 8 -15 2z"/>
<path d="M10 1191 c13 -10 13 -12 0 -22 -13 -9 -13 -10 0 -6 8 2 15 10 15 17
0 7 -7 15 -15 17 -13 4 -13 3 0 -6z"/>
<path d="M890 1189 c0 -5 -4 -8 -9 -5 -5 3 -14 -1 -21 -9 -9 -10 -9 -15 -1
-15 6 0 11 4 11 9 0 5 8 8 18 6 9 -2 23 -4 30 -4 7 -1 12 -7 11 -13 -3 -25 1
-38 12 -38 8 0 7 6 -2 16 -12 15 -11 16 9 10 14 -5 22 -3 22 4 0 6 -4 9 -9 6
-5 -3 -14 1 -21 9 -7 8 -19 15 -27 15 -8 0 -11 5 -8 10 3 6 1 10 -4 10 -6 0
-11 -5 -11 -11z"/>
<path d="M936 1185 c23 -17 34 -19 34 -4 0 5 -4 8 -9 4 -5 -3 -12 -1 -16 5 -3
5 -11 10 -18 10 -6 0 -2 -7 9 -15z"/>
<path d="M1018 1193 c6 -2 12 -9 12 -14 0 -6 -6 -9 -12 -8 -25 3 -38 -1 -38
-12 0 -8 6 -7 16 2 15 12 16 11 10 -11 l-8 -25 17 23 c12 17 22 21 38 16 21
-6 21 -6 -2 15 -13 11 -29 21 -35 20 -6 0 -6 -3 2 -6z"/>
<path d="M1190 1181 c0 -5 -13 -14 -30 -21 -16 -7 -30 -16 -30 -21 0 -5 14 0
32 11 17 10 35 17 38 15 4 -2 7 2 7 10 0 8 -4 15 -9 15 -4 0 -8 -4 -8 -9z"/>
<path d="M86 1144 c-9 -24 -2 -26 12 -4 7 11 8 20 3 20 -5 0 -12 -7 -15 -16z"/>
<path d="M880 1151 c-8 -6 -18 -7 -22 -5 -4 3 -16 0 -25 -5 -15 -9 -12 -10 13
-7 29 3 80 25 59 26 -5 0 -17 -4 -25 -9z"/>
<path d="M1024 1138 c-3 -5 5 -7 18 -4 24 4 52 -16 40 -30 -4 -4 -1 -4 5 0 10
5 10 11 1 25 -12 19 -54 25 -64 9z"/>
<path d="M912 1116 c11 -25 10 -30 -7 -42 -14 -10 -16 -17 -8 -25 13 -13 56
-2 48 12 -4 5 1 9 10 9 9 0 13 -4 10 -10 -4 -6 1 -7 11 -3 14 5 13 8 -7 19
-21 11 -25 10 -33 -7 -5 -10 -16 -19 -24 -19 -13 0 -13 3 1 18 21 23 21 33 2
58 -14 17 -14 17 -3 -10z"/>
<path d="M976 1131 c-3 -5 1 -11 9 -14 9 -4 12 -1 8 9 -6 16 -10 17 -17 5z"/>
<path d="M466 1114 c-6 -16 -13 -16 -61 1 -11 3 -7 -1 9 -11 24 -13 33 -14 49
-5 14 9 22 9 33 0 11 -9 21 -9 44 1 17 7 29 15 27 17 -3 2 -17 -2 -32 -9 -23
-10 -29 -10 -40 5 -15 21 -21 21 -29 1z"/>
<path d="M878 1118 c19 -19 14 -33 -6 -15 -10 10 -22 17 -26 17 -5 0 2 -8 15
-19 30 -24 53 -18 36 10 -6 10 -16 19 -21 19 -6 0 -5 -5 2 -12z"/>
<path d="M1052 1106 c7 -8 15 -12 17 -11 5 6 -10 25 -20 25 -5 0 -4 -6 3 -14z"/>
<path d="M13 1095 c0 -8 4 -12 9 -9 5 3 6 10 3 15 -9 13 -12 11 -12 -6z"/>
<path d="M390 1091 c0 -5 7 -11 15 -15 8 -3 15 -1 15 3 0 5 -7 11 -15 15 -8 3
-15 1 -15 -3z"/>
<path d="M550 1090 c-8 -5 -12 -11 -9 -14 2 -3 11 -1 19 4 8 5 12 11 9 14 -2
3 -11 1 -19 -4z"/>
<path d="M818 1083 c-9 -10 -13 -23 -11 -30 5 -15 -13 -26 -49 -28 -28 -3 -28
-2 -13 16 10 10 15 24 12 31 -3 8 -6 6 -6 -6 -1 -12 -6 -16 -15 -13 -11 4 -13
1 -9 -10 4 -11 2 -14 -5 -9 -7 4 -12 3 -12 -2 0 -5 12 -14 26 -20 14 -7 23 -8
19 -2 -3 5 1 10 10 10 9 0 14 -4 11 -9 -11 -17 26 -22 39 -5 6 10 17 14 23 10
7 -4 12 -2 12 3 0 16 -21 13 -42 -6 -10 -9 -18 -11 -18 -6 0 6 7 16 15 23 9 7
14 18 12 24 -4 12 21 41 29 33 3 -3 1 -15 -6 -26 -7 -14 -7 -21 0 -21 5 0 10
7 10 16 0 11 5 14 17 10 15 -6 15 -4 -2 14 -22 24 -28 25 -47 3z"/>
<path d="M465 1080 c-4 -6 -5 -14 -1 -17 3 -3 -2 -12 -10 -20 -20 -20 -29 -10
-14 16 7 14 7 21 0 21 -5 0 -10 -7 -10 -15 0 -17 -12 -19 -26 -5 -8 8 -18 5
-35 -8 -21 -18 -22 -23 -11 -46 15 -33 15 -36 2 -36 -5 0 -10 7 -10 15 0 8 -4
15 -10 15 -6 0 -5 -9 1 -24 10 -20 15 -23 29 -14 16 10 16 13 1 40 -15 27 -15
30 3 43 18 13 22 13 43 -7 22 -21 23 -21 43 -3 19 17 21 17 40 0 20 -18 21
-18 43 3 20 19 26 20 42 8 17 -12 18 -17 7 -42 -11 -27 -11 -27 3 -10 21 27
19 42 -7 60 -15 11 -26 12 -32 6 -14 -14 -26 -12 -26 5 0 8 -5 15 -10 15 -7 0
-7 -7 0 -21 7 -11 9 -23 6 -26 -7 -8 -31 19 -31 36 0 18 -21 26 -30 11z m25
-10 c0 -5 -4 -10 -10 -10 -5 0 -10 5 -10 10 0 6 5 10 10 10 6 0 10 -4 10 -10z"/>
<path d="M580 1087 c0 -3 11 -16 23 -29 24 -23 57 -33 57 -17 0 5 -8 9 -17 9
-9 0 -27 10 -40 22 -13 12 -23 19 -23 15z"/>
<path d="M49 1063 c-11 -15 -11 -16 1 -5 23 20 35 14 15 -8 -10 -11 -22 -17
-27 -14 -25 16 23 -49 60 -80 21 -18 23 -18 41 -2 11 10 17 25 14 34 -4 9 -2
13 4 9 6 -4 13 0 17 8 3 8 13 15 23 15 11 0 14 -3 7 -8 -17 -11 -36 -52 -24
-52 5 0 10 6 10 14 0 7 7 19 15 26 12 10 18 10 30 0 13 -11 12 -16 -5 -40 -25
-35 -6 -47 29 -19 13 11 20 19 15 19 -4 0 -16 -7 -26 -17 -21 -19 -24 -6 -4
19 7 10 17 14 22 10 4 -4 2 2 -6 13 -8 11 -19 23 -25 27 -6 5 -5 8 3 8 6 0 12
5 12 11 0 5 -4 8 -9 5 -5 -4 -11 -3 -14 1 -2 5 -2 2 0 -5 2 -9 -3 -11 -17 -7
-24 8 -73 -23 -66 -41 6 -16 -10 -19 -19 -4 -7 11 38 60 56 60 8 0 8 4 -1 15
-10 12 -10 15 0 15 8 0 11 3 7 6 -3 3 -14 1 -24 -5 -10 -6 -12 -11 -5 -11 6 0
12 -5 12 -12 0 -6 -3 -8 -7 -5 -3 4 -12 -2 -20 -13 -13 -18 -16 -19 -37 -5
-12 8 -26 12 -29 8 -4 -3 -7 -2 -7 4 0 19 14 23 36 8 20 -13 23 -12 28 1 8 21
8 24 -5 24 -5 0 -7 -4 -4 -10 10 -16 -12 -12 -29 5 -19 20 -31 19 -47 -2z m61
-48 c6 -4 8 -11 4 -16 -3 -5 0 -17 7 -25 6 -8 9 -17 6 -21 -6 -6 -77 59 -77
71 0 7 45 0 60 -9z"/>
<path d="M85 1000 c3 -5 8 -10 11 -10 2 0 4 5 4 10 0 6 -5 10 -11 10 -5 0 -7
-4 -4 -10z"/>
<path d="M774 1060 c0 -11 4 -20 8 -20 4 0 8 9 8 20 0 11 -4 20 -8 20 -4 0 -8
-9 -8 -20z"/>
<path d="M382 1031 c-9 -5 -6 -13 7 -28 11 -11 17 -24 14 -27 -4 -3 -2 -6 4
-6 20 0 22 14 3 27 -11 8 -20 19 -20 25 0 6 9 3 20 -7 11 -10 22 -16 24 -14 8
8 -41 37 -52 30z"/>
<path d="M460 1015 c-8 -9 -8 -15 -2 -15 6 0 13 6 16 13 5 10 7 10 12 0 3 -7
10 -13 16 -13 6 0 6 6 -2 15 -7 8 -16 15 -20 15 -4 0 -13 -7 -20 -15z"/>
<path d="M260 1014 c1 -13 29 -48 34 -43 2 2 -4 15 -15 28 -10 13 -19 19 -19
15z"/>
<path d="M200 961 c-13 -32 -9 -46 19 -61 14 -7 24 -4 40 11 24 23 41 19 22
-5 -6 -8 -10 -19 -9 -24 2 -6 -6 -18 -17 -27 -19 -16 -18 -16 7 -1 26 15 28
15 42 -6 8 -12 12 -26 9 -31 -4 -6 -1 -7 7 -2 8 5 11 3 8 -6 -3 -8 -14 -13
-24 -12 -10 1 -13 0 -6 -3 6 -3 12 -10 12 -15 0 -6 -6 -9 -12 -8 -26 3 -38 -1
-38 -13 0 -9 3 -9 11 -1 6 6 17 9 24 7 7 -3 21 8 31 25 10 17 23 30 29 29 15
-4 75 23 75 33 0 5 -15 0 -32 -9 -46 -25 -64 -22 -92 17 -24 33 -26 51 -5 51
6 0 7 -4 4 -10 -7 -11 25 -59 39 -60 5 0 0 10 -12 23 -30 32 -28 46 2 18 24
-23 25 -23 50 -5 14 11 26 23 26 29 0 5 -5 4 -12 -3 -16 -16 -28 -15 -28 3 0
8 -5 15 -10 15 -7 0 -7 -7 0 -21 15 -26 6 -36 -14 -16 -8 8 -13 17 -10 20 7 7
-28 56 -40 57 -5 0 0 -10 12 -23 30 -32 28 -46 -3 -17 l-25 23 -23 -21 c-21
-20 -25 -20 -43 -7 -18 13 -18 15 -2 45 9 16 13 30 9 30 -5 0 -14 -13 -21 -29z"/>
<path d="M432 969 c-19 -30 -11 -32 11 -3 10 13 14 24 10 24 -5 0 -14 -9 -21
-21z"/>
<path d="M567 969 c7 -7 15 -10 18 -7 3 3 -2 9 -12 12 -14 6 -15 5 -6 -5z"/>
<path d="M50 965 c0 -10 30 -38 30 -28 0 4 4 1 10 -7 5 -8 12 -12 15 -8 3 3
-8 16 -24 28 -17 12 -31 18 -31 15z"/>
<path d="M485 960 c-3 -5 -1 -10 4 -10 6 0 11 5 11 10 0 6 -2 10 -4 10 -3 0
-8 -4 -11 -10z"/>
<path d="M136 935 c-11 -8 -15 -15 -9 -15 7 0 15 5 18 11 4 6 13 8 21 5 8 -3
14 -1 14 4 0 14 -22 12 -44 -5z"/>
<path d="M390 930 c-8 -5 -12 -11 -9 -14 2 -3 11 -1 19 4 8 5 12 11 9 14 -2 3
-11 1 -19 -4z"/>
<path d="M420 920 c0 -5 5 -10 11 -10 8 0 7 -5 -1 -15 -7 -9 -10 -18 -6 -22 3
-3 6 -1 6 5 0 7 5 12 11 12 6 0 8 -9 4 -21 -6 -19 -5 -20 8 -8 13 12 12 17 -5
42 -21 29 -28 33 -28 17z"/>
<path d="M76 907 c4 -10 13 -16 21 -13 7 3 16 -1 20 -10 5 -12 8 -12 20 6 18
25 35 25 58 0 10 -11 20 -18 23 -15 6 6 -40 44 -55 45 -6 0 -19 -7 -27 -16
-10 -10 -16 -11 -16 -4 0 7 -6 10 -14 7 -7 -3 -19 0 -25 6 -9 9 -11 8 -5 -6z"/>
<path d="M147 877 c-14 -21 -14 -26 -2 -31 8 -3 12 0 9 7 -2 7 4 13 16 14 22
2 27 -12 8 -20 -10 -4 -10 -6 -1 -6 22 -2 25 21 6 41 -20 19 -20 19 -36 -5z"/>
<path d="M240 880 c-8 -5 -12 -11 -9 -14 2 -3 11 -1 19 4 8 5 12 11 9 14 -2 3
-11 1 -19 -4z"/>
<path d="M93 865 c0 -8 4 -12 9 -9 8 5 12 -9 9 -32 -1 -6 5 -17 13 -23 23 -19
29 16 6 39 -11 11 -20 25 -20 30 0 6 -4 10 -8 10 -5 0 -9 -7 -9 -15z m42 -45
c3 -5 1 -10 -4 -10 -6 0 -11 5 -11 10 0 6 2 10 4 10 3 0 8 -4 11 -10z"/>
<path d="M381 859 c-13 -10 -19 -19 -15 -19 13 1 48 29 43 34 -2 2 -15 -4 -28
-15z"/>
<path d="M202 840 c-6 -11 -17 -18 -24 -16 -7 1 -10 1 -5 -1 4 -3 5 -9 1 -14
-10 -17 5 -9 30 16 14 13 21 27 17 29 -4 3 -12 -4 -19 -14z"/>
<path d="M266 835 c-10 -8 -24 -11 -31 -9 -8 3 -21 -6 -30 -20 -14 -21 -21
-24 -36 -15 -33 17 -20 -5 13 -24 30 -17 31 -20 15 -32 -19 -14 -24 -30 -5
-19 7 5 9 2 6 -8 -4 -8 2 -20 13 -26 10 -7 19 -17 19 -24 0 -6 -10 -3 -22 8
-23 19 -23 19 -5 -2 9 -11 14 -24 10 -29 -5 -4 -2 -5 4 -1 7 4 18 16 24 28 8
15 8 19 0 14 -6 -4 -11 -3 -11 3 0 5 6 12 13 15 6 3 2 3 -10 0 -17 -4 -23 -1
-23 10 0 9 0 19 -1 23 0 4 4 9 10 11 7 2 9 -4 5 -15 -5 -16 -5 -17 6 -1 6 11
17 15 28 11 16 -6 16 -6 0 11 -10 9 -23 14 -28 11 -6 -4 -17 -1 -25 5 -12 10
-12 15 2 36 8 13 20 24 25 24 6 0 3 -11 -6 -25 -9 -14 -12 -25 -6 -25 5 0 10
4 10 8 0 12 39 52 51 52 6 0 7 -4 4 -10 -3 -5 -1 -10 4 -10 13 0 14 10 3 27
-5 8 -12 8 -26 -2z"/>
<path d="M250 787 c-12 -21 -12 -21 6 -7 10 8 20 15 22 16 2 1 -1 4 -5 7 -5 3
-15 -4 -23 -16z"/>
<path d="M146 761 c-3 -5 2 -15 11 -22 14 -12 16 -12 8 0 -6 11 -4 13 8 8 23
-9 21 0 -2 13 -11 6 -22 6 -25 1z"/>
</g>
</svg>
