<?xml version="1.0" encoding="utf-8"?>
<svg version="1.1" xmlns="http://www.w3.org/2000/svg" xmlns:xlink="http://www.w3.org/1999/xlink" x="0px" y="0px" viewBox="0 0 105.5 144.6" enable-background="new 0 0 105.5 144.6" xml:space="preserve">
<metadata>
	<sfw>
		<slices></slices>
		<sliceSourceBounds  width="103.1" height="141.8" bottomLeftOrigin="true" y="-455" x="460.1"></sliceSourceBounds>
	</sfw>
</metadata>
<g>
	<g>
		<path fill="#8099B3" d="M95.8,99c-5.3-4.4-11.8-6.7-19.1-6.7c-2.9,0-5.3,0.3-7.8,1V80.5h30.4V65.9H52.9v37.2l7.2,7.6
			c5.1-2.8,9.6-4.2,13.5-4.2c3.9,0,7,0.9,9.5,2.8c2.4,1.9,3.7,4.5,3.7,7.9c0,3.4-1.1,6-3.4,7.8c-2.3,1.7-4.9,2.6-7.8,2.6
			c-2.9,0-5.8-0.8-8.8-2.3c-2.9-1.6-4.9-2.8-6-3.8c-1.1-0.9-2-1.7-2.6-2.4l-9,12.5c6.9,7.6,15.6,11.5,26,11.5c0.7,0,1.4,0,2-0.1
			l26.6-27.4C103.4,108.7,100.8,103.2,95.8,99z M3.1,80.2h14.4v62.1h16.6V65.9h-31V80.2z M7.8,43.2l11.6,15.2h5.3V34h-5.3v15.7
			L7.5,34h-5v24.3h0.2l5.1-5.3V43.2z M46.9,44h-5.8l-4.6,4.7h10.4V44z M48.2,39v-2.1l-2,2.1H48.2z M36.3,48.9l-5.6,5.4v4h18.2v-4.7
			H36.3V48.9z M71.1,56.1c1.2-1.3,1.7-2.8,1.7-4.5c0-1.5-0.4-2.8-1.3-3.8c-0.9-1-2.1-1.7-3.6-2c0.4-0.2,0.7-0.3,0.9-0.4
			c0.2-0.1,0.5-0.3,0.9-0.6c1.2-0.9,1.8-2.3,1.8-4.2c0-1.6-0.5-3-1.6-4.2c-0.6-0.7-1.5-1.3-2.7-1.7C66,34.3,64.6,34,62.9,34h-1.5
			l-7.9,8v16.3h10.6C67.4,58.4,69.8,57.6,71.1,56.1z M58.8,38.7h2.7c1.6,0,2.7,0.2,3.4,0.5c0.7,0.3,1,1.1,1,2.1
			c0,1.1-0.4,1.8-1.1,2.1C64.1,43.8,63,44,61.5,44h-2.6V38.7z M58.8,53.7v-5.3h3.3c1.8,0,3.1,0.1,3.9,0.5c0.8,0.4,1.2,1.1,1.2,2.2
			c0,1.1-0.4,1.8-1.2,2.2c-0.8,0.4-1.9,0.5-3.5,0.5H58.8z M76.8,50.7c0.6,1.6,1.6,3,2.9,4.3c2.5,2.4,5.5,3.6,9.1,3.6
			c3.6,0,6.6-1.2,9.1-3.6c2.5-2.4,3.7-5.4,3.7-8.9c0-3.6-1.2-6.5-3.7-8.9c-1.4-1.3-2.9-2.3-4.6-2.9l-4,4c1.8,0.1,3.4,0.9,4.7,2.3
			c1.4,1.5,2.1,3.4,2.1,5.5c0,2.2-0.7,4-2.1,5.5c-1.4,1.5-3.1,2.3-5.1,2.3c-2,0-3.7-0.8-5.1-2.3c-1.4-1.5-2.1-3.3-2.1-5.5
			c0-0.1,0-0.1,0-0.1L76.8,50.7z M16.5,17.4c1.6-1.6,2.4-3.7,2.4-6.4c0-2.7-0.8-4.8-2.5-6.3c-1.7-1.5-4.1-2.3-7.2-2.3h-6v17.4h5.8
			C12.4,19.8,14.9,19,16.5,17.4z M6.2,5.1h2.9c4.6,0,6.8,2,6.8,6c0,2-0.6,3.4-1.7,4.4c-1.1,1-2.7,1.5-4.8,1.5H6.2V5.1z M28.4,20
			c2,0,3.6-0.7,5-2c1.3-1.3,2-2.9,2-4.8c0-1.9-0.7-3.5-2-4.8c-1.3-1.3-3-2-5-2s-3.6,0.7-5,2c-1.3,1.3-2,2.9-2,4.8
			c0,1.9,0.7,3.5,2,4.8C24.8,19.3,26.5,20,28.4,20z M25.4,10c0.8-0.8,1.8-1.2,3-1.2c1.2,0,2.2,0.4,3,1.2c0.8,0.8,1.2,1.8,1.2,3.1
			c0,1.3-0.4,2.3-1.2,3.1c-0.8,0.8-1.8,1.2-3,1.2c-1.2,0-2.2-0.4-3-1.2c-0.8-0.8-1.2-1.8-1.2-3.1C24.3,11.9,24.7,10.8,25.4,10z
			 M41.3,12.6c0-1.2,0.4-2.2,1.1-2.8c0.7-0.6,1.5-1,2.5-1c2,0,3,1.2,3,3.7v7.3h2.8v-8.1c0-1.7-0.5-3-1.4-4c-0.9-0.9-2.1-1.4-3.6-1.4
			c-0.9,0-1.8,0.2-2.5,0.7c-0.8,0.5-1.4,1.1-1.9,1.9V6.5h-2.8v13.3h2.8V12.6z M60.4,20c2.3,0,4.1-0.7,5.6-2.2L64.4,16
			c-0.9,1-2.1,1.6-3.8,1.6c-1,0-2-0.3-2.8-0.9c-0.8-0.6-1.3-1.4-1.3-2.3h10.4v-1.9c0-1.9-0.6-3.4-1.9-4.5c-1.3-1.1-2.8-1.6-4.6-1.6
			c-1.8,0-3.4,0.6-4.7,1.8c-1.3,1.2-2,2.9-2,5c0,2.1,0.6,3.7,2,5C57,19.4,58.6,20,60.4,20z M57.8,9.7c0.8-0.6,1.7-0.9,2.7-0.9
			c1,0,1.9,0.3,2.6,0.9c0.7,0.6,1,1.5,1,2.6h-7.6C56.5,11.1,56.9,10.3,57.8,9.7z M79.6,17.8c1.3,1.5,2.8,2.2,4.5,2.2
			s3.1-0.6,4.4-1.9c1.3-1.3,1.9-2.9,1.9-5s-0.6-3.7-1.9-4.9c-1.3-1.2-2.8-1.8-4.5-1.8c-1.8,0-3.2,0.8-4.3,2.5V1.3h-2.8v18.5h2.8
			V17.8z M80.6,10c0.8-0.8,1.7-1.3,2.8-1.3c1.1,0,2.1,0.4,2.9,1.3c0.8,0.8,1.2,1.9,1.2,3.2s-0.4,2.3-1.2,3.1
			c-0.8,0.8-1.8,1.2-2.9,1.2c-1.1,0-2-0.4-2.8-1.2c-0.8-0.8-1.1-1.8-1.1-3.1C79.5,11.9,79.9,10.9,80.6,10z M96.4,21.6
			c-0.4,0.4-0.9,0.7-1.5,0.7c-0.6,0-1.2-0.3-1.8-0.8l-1.3,2.3c1,0.9,2.1,1.3,3.3,1.3c0.9,0,1.6-0.2,2.4-0.7c0.7-0.5,1.3-1.2,1.6-2
			l6.4-15.8h-3l-4,9.8l-4-9.8h-3c3.6,8.9,5.3,13.4,5.3,13.6C97,20.7,96.8,21.2,96.4,21.6z"/>
	</g>
</g>
</svg>
